<svg width="177" height="70" viewBox="0 0 177 70" fill="none" xmlns="http://www.w3.org/2000/svg">
<path d="M25 1.15196e-05V19L0 19L8.30516e-07 1.04269e-05L25 1.15196e-05Z" fill="white"/>
<path d="M8.30516e-07 1.04269e-05L19 1.15196e-05V44H8.30516e-07V1.04269e-05Z" fill="white"/>
<path d="M44 25V44L8.30516e-07 44V25L44 25Z" fill="white"/>
<path d="M25 19L44 19V44L25 44V19Z" fill="white"/>
<path d="M48 11.1764L62.5976 3.24047e-05L89.1053 34.6221L74.5077 45.7985L48 11.1764Z" fill="white"/>
<path d="M86 3.58433e-06V25L48 25V1.9233e-06L86 3.58433e-06Z" fill="white"/>
<path d="M48 1.9233e-06L67 1.07369e-05V44H48L48 1.9233e-06Z" fill="white"/>
<path d="M119 1.9233e-06H137V44H119V1.9233e-06Z" fill="white"/>
<path d="M137 1.9233e-06V19L93 19V0L137 1.9233e-06Z" fill="white"/>
<path d="M93 0L111 1.9233e-06V44H93V0Z" fill="white"/>
<path d="M141 19H177V44H141V19Z" fill="white"/>
<path d="M172 3.27835e-06V19L141 19V1.9233e-06L172 3.27835e-06Z" fill="white"/>
<path d="M141 1.9233e-06L159 3.27835e-06V44H141V1.9233e-06Z" fill="white"/>
<path d="M70.9492 61.1572C70.9492 59.6689 71.2773 58.4912 71.9336 57.624C72.5957 56.751 73.4922 56.3145 74.623 56.3145C75.918 56.3145 76.9023 56.8301 77.5762 57.8613L77.6289 56.4902H78.6133V65.8066C78.6133 67.0312 78.2705 68.001 77.585 68.7158C76.8994 69.4307 75.9707 69.7881 74.7988 69.7881C74.1367 69.7881 73.5039 69.6387 72.9004 69.3398C72.3027 69.0469 71.8311 68.6543 71.4854 68.1621L72.0742 67.5293C72.8184 68.4434 73.7031 68.9004 74.7285 68.9004C75.6074 68.9004 76.293 68.6396 76.7852 68.1182C77.2773 67.6025 77.5322 66.8848 77.5498 65.9648V64.7695C76.876 65.707 75.8945 66.1758 74.6055 66.1758C73.5039 66.1758 72.6191 65.7363 71.9512 64.8574C71.2832 63.9785 70.9492 62.792 70.9492 61.2979V61.1572ZM72.0127 61.3418C72.0127 62.5547 72.2559 63.5127 72.7422 64.2158C73.2285 64.9131 73.9141 65.2617 74.7988 65.2617C76.0938 65.2617 77.0107 64.6816 77.5498 63.5215V59.1006C77.3037 58.4912 76.9492 58.0283 76.4863 57.7119C76.0234 57.3896 75.4668 57.2285 74.8164 57.2285C73.9316 57.2285 73.2432 57.5771 72.751 58.2744C72.2588 58.9658 72.0127 59.9883 72.0127 61.3418Z" fill="white"/>
<path d="M85.75 57.3867C85.5273 57.3457 85.29 57.3252 85.0381 57.3252C84.3818 57.3252 83.8252 57.5098 83.3682 57.8789C82.917 58.2422 82.5947 58.7725 82.4014 59.4697V66H81.3555V56.4902H82.3838L82.4014 58.002C82.958 56.877 83.8516 56.3145 85.082 56.3145C85.375 56.3145 85.6064 56.3525 85.7764 56.4287L85.75 57.3867Z" fill="white"/>
<path d="M93.0713 66C92.9658 65.7012 92.8984 65.2588 92.8691 64.6729C92.5 65.1533 92.0283 65.5254 91.4541 65.7891C90.8857 66.0469 90.2822 66.1758 89.6436 66.1758C88.7295 66.1758 87.9883 65.9209 87.4199 65.4111C86.8574 64.9014 86.5762 64.2568 86.5762 63.4775C86.5762 62.5518 86.96 61.8193 87.7275 61.2803C88.501 60.7412 89.5762 60.4717 90.9531 60.4717H92.8604V59.3906C92.8604 58.7109 92.6494 58.1777 92.2275 57.791C91.8115 57.3984 91.2021 57.2021 90.3994 57.2021C89.667 57.2021 89.0605 57.3896 88.5801 57.7646C88.0996 58.1396 87.8594 58.5908 87.8594 59.1182L86.8047 59.1094C86.8047 58.3535 87.1562 57.7002 87.8594 57.1494C88.5625 56.5928 89.4268 56.3145 90.4521 56.3145C91.5127 56.3145 92.3477 56.5811 92.957 57.1143C93.5723 57.6416 93.8887 58.3799 93.9062 59.3291V63.8291C93.9062 64.749 94.0029 65.4375 94.1963 65.8945V66H93.0713ZM89.7666 65.2441C90.4697 65.2441 91.0967 65.0742 91.6475 64.7344C92.2041 64.3945 92.6084 63.9404 92.8604 63.3721V61.2803H90.9795C89.9307 61.292 89.1104 61.4854 88.5186 61.8604C87.9268 62.2295 87.6309 62.7393 87.6309 63.3896C87.6309 63.9229 87.8271 64.3652 88.2197 64.7168C88.6182 65.0684 89.1338 65.2441 89.7666 65.2441Z" fill="white"/>
<path d="M104.374 61.3418C104.374 62.8242 104.046 64.002 103.39 64.875C102.733 65.7422 101.852 66.1758 100.744 66.1758C99.4199 66.1758 98.418 65.6836 97.7383 64.6992L97.6943 66H96.71V52.5H97.7559V57.8701C98.4238 56.833 99.4141 56.3145 100.727 56.3145C101.852 56.3145 102.739 56.7451 103.39 57.6064C104.046 58.4619 104.374 59.6543 104.374 61.1836V61.3418ZM103.319 61.1572C103.319 59.9033 103.076 58.9365 102.59 58.2568C102.104 57.5713 101.418 57.2285 100.533 57.2285C99.8594 57.2285 99.2881 57.3955 98.8193 57.7295C98.3506 58.0576 97.9961 58.541 97.7559 59.1797V63.4688C98.2832 64.6641 99.2148 65.2617 100.551 65.2617C101.418 65.2617 102.095 64.9189 102.581 64.2334C103.073 63.5479 103.319 62.5225 103.319 61.1572Z" fill="white"/>
<path d="M137 21V40H93V21L137 21Z" fill="white"/>
</svg>
